<svg width="400" height="400" xmlns="http://www.w3.org/2000/svg">
  <!-- Background (optional, for clarity) -->
  <rect x="0" y="0" width="400" height="400" fill="#fff"/>
  <!-- Plot area group (translated by margins) -->
  <g transform="translate(50,50)">
    <!-- X-axis (line at y=300) -->
    <path d="M0,300 H320" stroke="#000" stroke-width="1"/>
    <!-- X-axis ticks and labels -->
    <path d="M0,300 V305" stroke="#000" stroke-width="1"/>
    <text x="0" y="320" font-family="Arial" font-size="12" text-anchor="middle">0.8</text>
    <path d="M106.67,300 V305" stroke="#000" stroke-width="1"/>
    <text x="106.67" y="320" font-family="Arial" font-size="12" text-anchor="middle">1.2</text>
    <path d="M213.33,300 V305" stroke="#000" stroke-width="1"/>
    <text x="213.33" y="320" font-family="Arial" font-size="12" text-anchor="middle">1.6</text>
    <path d="M320,300 V305" stroke="#000" stroke-width="1"/>
    <text x="320" y="320" font-family="Arial" font-size="12" text-anchor="middle">2</text>
    <!-- X-axis label -->
    <text x="160" y="340" font-family="Arial" font-size="12" text-anchor="middle">Probability Ratio (r)</text>
    <!-- Y-axis (line at x=0) -->
    <path d="M0,0 V300" stroke="#000" stroke-width="1"/>
    <!-- Y-axis ticks and labels -->
    <path d="M-5,300 H0" stroke="#000" stroke-width="1"/>
    <text x="-10" y="304" font-family="Arial" font-size="12" text-anchor="end">0</text>
    <path d="M-5,180 H0" stroke="#000" stroke-width="1"/>
    <text x="-10" y="184" font-family="Arial" font-size="12" text-anchor="end">1</text>
    <path d="M-5,60 H0" stroke="#000" stroke-width="1"/>
    <text x="-10" y="64" font-family="Arial" font-size="12" text-anchor="end">2</text>
    <!-- Y-axis label (rotated) -->
    <text x="-150" y="-30" font-family="Arial" font-size="12" text-anchor="middle" transform="rotate(-90, -150, -30)">Objective Value</text>
    <!-- Clipped line: [{x:1,y:1}, {x:1.2,y:1.2}, {x:1.4,y:1.2}, {x:1.6,y:1.2}, {x:2,y:1.2}] -->
    <path d="M5,201.75 L106.67,156 L160,156 L213.33,156 L320,156" fill="none" stroke="#ff7f0e" stroke-width="2" />
    <!-- Unclipped line: [{x:1,y:1}, {x:1.2,y:1.2}, {x:1.4,y:1.4}, {x:1.6,y:1.6}, {x:2,y:2}] -->
    <path d="M5,201.75 L106.67,156 L160,132 L213.33,108 L320,60" fill="none" stroke="#1f77b4" stroke-width="2" stroke-dasharray="5,5"/>
    <!-- Legend (positioned at top-right of plot area) -->
    <g transform="translate(220,10)">
      <rect x="0" y="0" width="10" height="2" fill="#1f77b4"/>
      <text x="15" y="5" font-family="Arial" font-size="12">Unclipped</text>
      <rect x="0" y="15" width="10" height="2" fill="#ff7f0e"/>
      <text x="15" y="20" font-family="Arial" font-size="12">Clipped (ε=0.2)</text>
    </g>
  </g>
  <!-- Title (centered at top of SVG) -->
  <text x="200" y="30" font-family="Arial" font-size="16" font-weight="bold" text-anchor="middle">PPO Clipped vs Unclipped Objective (A=1, ε=0.2)</text>
</svg>
